<svg id="svg" version="1.1" xmlns="http://www.w3.org/2000/svg" xmlns:xlink="http://www.w3.org/1999/xlink" width="400" height="400" viewBox="0, 0, 400,400"><g id="svgg"><path id="path0" d="M115.600 36.840 C 115.600 48.911,114.923 48.350,129.676 48.494 L 140.600 48.600 140.600 60.000 L 140.600 71.400 129.800 71.600 C 115.198 71.870,115.600 71.564,115.600 82.400 C 115.600 93.437,115.833 93.600,131.620 93.600 L 140.800 93.600 140.800 104.757 C 140.800 114.562,140.723 115.944,140.167 116.157 C 139.819 116.291,134.950 116.400,129.347 116.400 C 115.217 116.400,115.600 116.105,115.600 127.000 C 115.600 137.804,114.979 137.334,129.600 137.600 L 140.600 137.800 140.705 146.800 C 140.872 161.065,139.266 160.000,160.600 160.000 C 181.604 160.000,180.400 160.659,180.400 149.161 C 180.400 138.319,180.567 138.441,165.600 138.300 L 155.000 138.200 155.000 127.000 L 155.000 115.800 165.800 115.600 C 180.776 115.323,180.400 115.602,180.400 104.757 C 180.400 93.751,180.800 94.051,165.947 93.907 L 155.000 93.800 154.894 82.628 C 154.811 73.956,154.900 71.383,155.294 71.134 C 155.572 70.957,160.591 70.809,166.446 70.806 C 180.744 70.798,180.400 71.060,180.400 60.174 C 180.400 49.376,180.693 49.600,166.555 49.600 C 153.361 49.600,154.800 50.899,154.800 38.986 L 154.800 29.200 135.200 29.200 L 115.600 29.200 115.600 36.840 M296.663 61.504 C 296.565 61.667,296.726 62.023,297.021 62.296 C 297.316 62.569,297.638 62.659,297.737 62.496 C 297.835 62.333,297.674 61.977,297.379 61.704 C 297.084 61.431,296.762 61.341,296.663 61.504 M298.000 63.006 C 298.000 63.119,299.530 64.741,301.400 66.611 C 305.684 70.895,305.847 70.513,301.619 66.100 C 298.702 63.056,298.000 62.456,298.000 63.006 M311.600 77.222 C 311.600 77.417,313.715 79.731,316.300 82.364 C 318.885 84.998,322.620 88.881,324.600 90.993 C 326.580 93.106,329.910 96.610,332.000 98.779 C 334.090 100.949,337.960 105.007,340.600 107.798 C 348.934 116.609,349.659 117.301,350.093 116.867 C 350.463 116.497,348.095 113.944,342.745 108.943 C 341.394 107.680,332.736 98.583,331.283 96.900 C 330.856 96.405,330.272 96.000,329.986 96.000 C 329.701 96.000,329.567 95.900,329.690 95.777 C 329.933 95.533,325.664 90.995,317.100 82.393 C 314.075 79.355,311.600 77.028,311.600 77.222 M139.000 175.871 C 135.817 176.712,135.601 177.867,135.592 194.087 L 135.585 208.200 133.771 213.400 C 132.774 216.260,131.151 221.030,130.165 224.000 C 129.178 226.970,128.218 229.760,128.031 230.200 C 127.381 231.729,126.502 235.392,126.120 238.165 C 125.803 240.456,127.106 246.201,128.530 248.798 C 140.080 269.858,171.430 260.960,169.447 237.185 C 169.228 234.566,163.680 216.599,161.237 210.600 C 160.099 207.806,160.000 206.380,160.000 192.756 L 160.000 178.570 158.844 177.185 L 157.689 175.800 148.744 175.730 C 143.825 175.692,139.440 175.755,139.000 175.871 M156.808 228.900 C 157.103 229.835,157.459 230.780,157.600 231.000 C 157.741 231.220,158.086 232.210,158.367 233.200 C 158.648 234.190,159.040 235.313,159.239 235.695 C 159.703 236.587,159.709 241.397,159.247 242.305 C 159.052 242.687,158.647 243.540,158.347 244.200 C 154.491 252.664,141.181 252.412,137.213 243.800 C 135.650 240.407,136.839 231.744,139.447 227.524 C 139.557 227.346,143.388 227.200,147.960 227.200 L 156.272 227.200 156.808 228.900 " stroke="none" fill="#fcfbfa" fill-rule="evenodd"></path><path id="path1" d="M236.800 59.200 L 236.800 116.800 292.167 116.800 C 322.619 116.800,347.864 116.923,348.267 117.073 C 348.670 117.223,346.902 115.198,344.338 112.573 C 341.775 109.948,339.098 107.170,338.391 106.400 C 337.070 104.961,325.526 92.855,321.600 88.791 C 320.390 87.538,316.520 83.486,313.000 79.786 C 309.480 76.086,305.790 72.221,304.800 71.196 C 303.810 70.171,301.200 67.386,299.000 65.007 C 296.800 62.628,294.764 60.440,294.474 60.144 C 294.185 59.848,294.078 59.397,294.236 59.141 C 294.413 58.856,294.349 58.784,294.072 58.955 C 293.810 59.118,292.360 57.973,290.604 56.217 C 288.945 54.558,287.699 53.200,287.836 53.200 C 287.973 53.200,287.526 52.678,286.842 52.040 C 286.159 51.401,285.600 50.591,285.600 50.240 C 285.600 49.888,285.465 49.641,285.300 49.690 C 284.791 49.844,274.347 39.209,274.602 38.797 C 274.737 38.579,274.570 38.513,274.221 38.647 C 273.824 38.800,273.600 38.661,273.600 38.263 C 273.600 37.921,273.145 37.137,272.589 36.521 C 270.612 34.329,266.078 29.754,262.863 26.709 C 261.068 25.009,259.600 23.434,259.600 23.209 C 259.600 22.984,259.450 22.800,259.268 22.800 C 259.085 22.800,258.694 22.350,258.400 21.800 C 258.106 21.250,257.646 20.800,257.379 20.800 C 257.112 20.800,256.799 20.439,256.684 19.998 C 256.553 19.497,256.254 19.281,255.889 19.421 C 255.239 19.671,254.643 18.578,255.061 17.902 C 255.216 17.651,255.134 17.594,254.862 17.762 C 254.608 17.919,254.400 17.846,254.400 17.600 C 254.400 17.354,254.220 17.264,254.000 17.400 C 253.780 17.536,253.600 17.457,253.600 17.224 C 253.600 16.991,253.311 16.800,252.957 16.800 C 252.567 16.800,252.400 16.577,252.532 16.234 C 252.672 15.869,252.264 15.437,251.386 15.020 C 250.636 14.664,247.098 11.499,243.524 7.987 C 239.950 4.474,236.975 1.600,236.913 1.600 C 236.851 1.600,236.800 27.520,236.800 59.200 M115.280 28.880 C 114.934 29.226,114.824 31.485,114.887 36.980 L 114.974 44.600 115.187 36.800 L 115.400 29.000 129.000 28.792 L 142.600 28.584 129.180 28.492 C 119.170 28.423,115.638 28.522,115.280 28.880 M154.790 28.663 C 155.053 28.794,155.200 32.337,155.200 38.553 C 155.200 45.554,155.333 48.373,155.680 48.720 C 156.034 49.074,158.905 49.176,166.580 49.110 L 177.000 49.020 166.400 48.810 L 155.800 48.600 155.600 38.633 C 155.447 31.003,155.280 28.642,154.890 28.563 C 154.610 28.506,154.565 28.552,154.790 28.663 M160.476 71.499 C 163.268 71.567,167.948 71.568,170.876 71.499 C 173.804 71.431,171.520 71.375,165.800 71.374 C 160.080 71.374,157.684 71.430,160.476 71.499 M155.375 82.600 C 155.375 88.540,155.431 91.026,155.499 88.124 C 155.567 85.222,155.567 80.362,155.499 77.324 C 155.431 74.286,155.375 76.660,155.375 82.600 M114.963 82.400 C 114.963 86.030,115.023 87.515,115.098 85.700 C 115.172 83.885,115.172 80.915,115.098 79.100 C 115.023 77.285,114.963 78.770,114.963 82.400 M124.700 93.899 C 127.615 93.967,132.385 93.967,135.300 93.899 C 138.215 93.831,135.830 93.775,130.000 93.775 C 124.170 93.775,121.785 93.831,124.700 93.899 M155.284 126.876 C 155.238 132.748,155.335 137.637,155.500 137.739 C 155.665 137.841,155.754 134.747,155.697 130.862 C 155.503 117.527,155.367 116.215,155.284 126.876 M114.964 127.000 C 114.963 130.740,115.023 132.324,115.097 130.520 C 115.171 128.715,115.172 125.655,115.098 123.720 C 115.025 121.784,114.964 123.260,114.964 127.000 M124.076 138.299 C 126.868 138.367,131.548 138.368,134.476 138.299 C 137.404 138.231,135.120 138.175,129.400 138.174 C 123.680 138.174,121.284 138.230,124.076 138.299 M143.700 175.098 C 146.065 175.169,149.935 175.169,152.300 175.098 C 154.665 175.028,152.730 174.970,148.000 174.970 C 143.270 174.970,141.335 175.028,143.700 175.098 M136.441 177.014 C 135.759 177.792,135.205 178.647,135.212 178.914 C 135.219 179.181,135.423 179.040,135.666 178.600 C 135.908 178.160,136.567 177.305,137.128 176.700 C 137.690 176.095,138.045 175.600,137.916 175.600 C 137.788 175.600,137.124 176.236,136.441 177.014 M158.934 176.907 C 159.630 177.626,160.277 178.164,160.371 178.103 C 160.599 177.954,158.331 175.600,157.959 175.600 C 157.799 175.600,158.238 176.188,158.934 176.907 M139.582 228.034 C 139.336 228.493,139.223 228.957,139.331 229.064 C 139.439 229.172,139.644 228.890,139.788 228.439 C 140.038 227.652,140.382 227.612,147.924 227.499 L 155.800 227.382 147.914 227.291 C 140.283 227.203,140.014 227.227,139.582 228.034 M169.885 238.000 C 170.118 241.907,170.336 242.481,170.340 239.200 C 170.342 237.770,170.200 236.240,170.024 235.800 C 169.843 235.346,169.783 236.299,169.885 238.000 M125.744 239.200 C 125.744 241.290,125.812 242.145,125.894 241.100 C 125.976 240.055,125.976 238.345,125.894 237.300 C 125.812 236.255,125.744 237.110,125.744 239.200 M155.578 247.100 L 154.200 248.600 155.700 247.222 C 157.096 245.938,157.384 245.600,157.078 245.600 C 157.012 245.600,156.337 246.275,155.578 247.100 M163.600 254.600 C 162.628 255.590,161.923 256.400,162.033 256.400 C 162.143 256.400,163.028 255.590,164.000 254.600 C 164.972 253.610,165.677 252.800,165.567 252.800 C 165.457 252.800,164.572 253.610,163.600 254.600 " stroke="none" fill="#fccc64" fill-rule="evenodd"></path><path id="path2" d="M91.300 0.293 C 90.365 0.377,89.600 0.616,89.600 0.823 C 89.600 1.030,88.880 1.200,88.000 1.200 C 87.120 1.200,86.400 1.380,86.400 1.600 C 86.400 1.820,85.860 2.000,85.200 2.000 C 84.540 2.000,84.000 2.180,84.000 2.400 C 84.000 2.620,83.728 2.800,83.395 2.800 C 83.062 2.800,82.477 2.957,82.095 3.150 C 79.101 4.658,77.844 5.200,77.339 5.200 C 77.016 5.200,76.864 5.380,77.000 5.600 C 77.136 5.820,77.001 6.000,76.699 6.000 C 76.398 6.000,75.764 6.360,75.292 6.800 C 74.820 7.240,74.156 7.600,73.817 7.600 C 73.478 7.600,73.200 7.758,73.200 7.951 C 73.200 8.145,72.637 8.536,71.948 8.821 C 71.260 9.107,70.312 9.713,69.842 10.170 C 69.372 10.626,68.180 11.654,67.194 12.452 C 65.048 14.190,62.718 16.400,63.032 16.400 C 63.156 16.400,63.019 16.646,62.729 16.947 C 61.475 18.244,60.479 19.548,59.765 20.828 C 59.344 21.583,58.685 22.491,58.300 22.847 C 57.915 23.203,57.600 23.788,57.600 24.147 C 57.600 24.506,57.420 24.800,57.200 24.800 C 56.980 24.800,56.800 25.160,56.800 25.600 C 56.800 26.040,56.620 26.400,56.400 26.400 C 56.180 26.400,56.000 26.670,56.000 27.000 C 56.000 27.330,55.820 27.600,55.600 27.600 C 55.380 27.600,55.200 27.960,55.200 28.400 C 55.200 28.840,55.020 29.200,54.800 29.200 C 54.580 29.200,54.400 29.560,54.400 30.000 C 54.400 30.440,54.220 30.800,54.000 30.800 C 53.780 30.800,53.600 31.250,53.600 31.800 C 53.600 32.350,53.420 32.800,53.200 32.800 C 52.980 32.800,52.800 33.250,52.800 33.800 C 52.800 34.350,52.620 34.800,52.400 34.800 C 52.180 34.800,52.000 35.329,52.000 35.976 C 52.000 36.623,51.820 37.264,51.600 37.400 C 51.380 37.536,51.200 38.267,51.200 39.024 C 51.200 39.781,51.020 40.400,50.800 40.400 C 50.575 40.400,50.400 41.525,50.400 42.976 C 50.400 44.393,50.220 45.664,50.000 45.800 C 49.478 46.123,49.443 353.676,49.965 354.220 C 50.165 354.429,50.430 355.590,50.552 356.800 C 50.994 361.182,51.287 362.800,51.640 362.800 C 51.838 362.800,52.000 363.340,52.000 364.000 C 52.000 364.660,52.180 365.200,52.400 365.200 C 52.620 365.200,52.800 365.751,52.800 366.424 C 52.800 367.137,52.967 367.544,53.200 367.400 C 53.427 367.260,53.600 367.596,53.600 368.176 C 53.600 368.739,53.780 369.200,54.000 369.200 C 54.220 369.200,54.400 369.560,54.400 370.000 C 54.400 370.440,54.580 370.800,54.800 370.800 C 55.020 370.800,55.200 371.160,55.200 371.600 C 55.200 372.040,55.380 372.400,55.600 372.400 C 55.820 372.400,56.000 372.760,56.000 373.200 C 56.000 373.640,56.180 374.000,56.400 374.000 C 56.620 374.000,56.800 374.270,56.800 374.600 C 56.800 374.930,56.980 375.200,57.200 375.200 C 57.420 375.200,57.600 375.436,57.600 375.725 C 57.600 376.013,57.915 376.603,58.300 377.037 C 58.685 377.470,59.352 378.448,59.781 379.212 C 60.211 379.975,60.962 380.999,61.450 381.487 C 61.939 381.975,62.454 382.740,62.596 383.187 C 62.738 383.634,63.142 384.000,63.494 384.000 C 63.845 384.000,64.027 384.106,63.897 384.236 C 63.664 384.469,66.248 387.200,66.701 387.200 C 66.828 387.200,67.218 387.474,67.566 387.809 C 69.216 389.394,71.101 390.820,72.100 391.237 C 72.705 391.490,73.200 391.855,73.200 392.049 C 73.200 392.242,73.520 392.400,73.912 392.400 C 74.303 392.400,74.883 392.760,75.200 393.200 C 75.517 393.640,76.082 394.000,76.455 394.000 C 76.828 394.000,77.193 394.135,77.267 394.300 C 77.396 394.590,80.355 396.087,82.400 396.897 C 82.950 397.115,83.713 397.452,84.095 397.647 C 84.477 397.841,85.152 398.000,85.595 398.000 C 86.038 398.000,86.400 398.180,86.400 398.400 C 86.400 398.620,87.105 398.800,87.967 398.800 C 88.864 398.800,89.604 399.013,89.700 399.300 C 89.945 400.036,310.055 400.036,310.300 399.300 C 310.392 399.025,311.071 398.800,311.810 398.800 C 312.548 398.800,313.264 398.620,313.400 398.400 C 313.536 398.180,314.076 398.000,314.600 398.000 C 315.124 398.000,315.664 397.820,315.800 397.600 C 315.936 397.380,316.397 397.200,316.824 397.200 C 317.251 397.200,317.600 397.020,317.600 396.800 C 317.600 396.580,318.151 396.400,318.824 396.400 C 319.537 396.400,319.944 396.233,319.800 396.000 C 319.660 395.773,319.996 395.600,320.576 395.600 C 321.139 395.600,321.600 395.420,321.600 395.200 C 321.600 394.980,321.870 394.800,322.200 394.800 C 322.530 394.800,322.800 394.620,322.800 394.400 C 322.800 394.180,323.171 394.000,323.624 394.000 C 324.077 394.000,324.336 393.820,324.200 393.600 C 324.064 393.380,324.233 393.200,324.576 393.200 C 324.919 393.200,325.200 393.020,325.200 392.800 C 325.200 392.580,325.560 392.400,326.000 392.400 C 326.440 392.400,326.800 392.242,326.800 392.049 C 326.800 391.855,327.367 391.462,328.060 391.175 C 328.753 390.888,329.917 390.056,330.647 389.327 C 331.376 388.597,332.119 388.000,332.298 388.000 C 332.476 388.000,332.917 387.685,333.277 387.300 C 333.638 386.915,334.482 386.150,335.154 385.600 C 335.826 385.050,336.381 384.375,336.388 384.100 C 336.395 383.825,336.580 383.600,336.800 383.600 C 337.020 383.600,337.200 383.420,337.200 383.200 C 337.200 382.981,337.920 382.059,338.800 381.152 C 339.680 380.245,340.400 379.333,340.400 379.125 C 340.400 378.917,340.850 378.157,341.400 377.436 C 341.950 376.714,342.400 375.916,342.400 375.662 C 342.400 375.408,342.580 375.200,342.800 375.200 C 343.020 375.200,343.200 374.930,343.200 374.600 C 343.200 374.270,343.380 374.000,343.600 374.000 C 343.820 374.000,344.000 373.640,344.000 373.200 C 344.000 372.760,344.180 372.400,344.400 372.400 C 344.620 372.400,344.800 372.040,344.800 371.600 C 344.800 371.160,344.980 370.800,345.200 370.800 C 345.420 370.800,345.600 370.440,345.600 370.000 C 345.600 369.560,345.780 369.200,346.000 369.200 C 346.220 369.200,346.400 368.851,346.400 368.424 C 346.400 367.997,346.580 367.536,346.800 367.400 C 347.020 367.264,347.200 366.713,347.200 366.176 C 347.200 365.639,347.380 365.200,347.600 365.200 C 347.820 365.200,348.000 364.581,348.000 363.824 C 348.000 363.067,348.160 362.348,348.356 362.227 C 348.766 361.974,349.161 359.996,349.462 356.700 C 349.577 355.435,349.835 354.400,350.036 354.400 C 350.254 354.400,350.400 306.991,350.400 236.047 L 350.400 117.693 349.500 117.452 C 349.005 117.319,323.265 117.208,292.300 117.205 L 236.000 117.200 236.000 58.600 L 236.000 0.000 164.500 0.070 C 125.175 0.108,92.235 0.209,91.300 0.293 M238.086 0.946 C 238.589 1.467,239.074 1.828,239.164 1.749 C 239.397 1.545,237.948 0.000,237.524 0.000 C 237.330 0.000,237.583 0.426,238.086 0.946 M155.600 38.200 L 155.800 48.200 166.400 48.400 C 177.758 48.614,177.792 48.621,179.800 50.861 L 181.000 52.200 181.000 60.063 L 181.000 67.925 179.800 69.402 C 177.869 71.780,176.723 71.987,165.493 71.994 L 155.587 72.000 155.693 82.500 L 155.800 93.000 166.639 93.200 C 178.204 93.413,177.881 93.356,179.856 95.550 C 180.974 96.792,181.191 98.294,181.191 104.800 C 181.191 111.306,180.974 112.808,179.856 114.050 C 177.881 116.244,178.204 116.187,166.639 116.400 L 155.800 116.600 155.800 127.000 L 155.800 137.400 166.639 137.600 C 178.204 137.813,177.881 137.756,179.856 139.950 C 180.974 141.192,181.191 142.694,181.191 149.200 C 181.191 161.173,181.842 160.802,160.850 160.796 C 143.865 160.790,143.649 160.769,141.785 158.905 L 140.400 157.520 140.400 148.203 C 140.400 140.076,140.319 138.855,139.767 138.643 C 139.419 138.509,134.568 138.400,128.986 138.400 C 114.663 138.400,115.061 138.706,114.876 127.528 C 114.674 115.301,114.491 115.452,129.700 115.276 L 140.400 115.152 140.400 104.576 L 140.400 94.000 129.700 93.999 C 114.605 93.996,114.804 94.151,114.801 82.359 C 114.799 70.716,114.599 70.870,129.700 70.829 L 140.400 70.800 140.400 60.200 L 140.400 49.600 129.900 49.599 C 114.616 49.596,114.800 49.755,114.800 36.607 C 114.800 30.470,114.923 28.417,115.300 28.263 C 115.575 28.151,124.710 28.091,135.600 28.130 L 155.400 28.200 155.600 38.200 M157.683 175.300 C 159.048 176.082,160.400 177.505,160.400 178.158 C 160.400 178.485,160.580 178.864,160.800 179.000 C 161.055 179.158,161.200 184.663,161.200 194.200 C 161.200 203.737,161.345 209.242,161.600 209.400 C 161.820 209.536,162.000 209.999,162.000 210.429 C 162.000 210.859,162.208 211.613,162.462 212.105 C 163.456 214.026,163.600 214.416,163.600 215.171 C 163.600 215.601,163.780 216.064,164.000 216.200 C 164.220 216.336,164.400 216.799,164.400 217.229 C 164.400 217.659,164.577 218.323,164.794 218.705 C 168.412 225.081,171.179 239.140,169.842 244.357 C 168.517 249.533,163.369 256.858,160.395 257.802 C 159.958 257.940,159.600 258.222,159.600 258.427 C 159.600 258.632,159.240 258.800,158.800 258.800 C 158.360 258.800,158.000 258.980,158.000 259.200 C 158.000 259.420,157.640 259.600,157.200 259.600 C 156.760 259.600,156.400 259.780,156.400 260.000 C 156.400 260.220,155.896 260.400,155.280 260.400 C 154.664 260.400,153.944 260.616,153.680 260.880 C 153.354 261.206,151.467 261.360,147.800 261.360 C 144.133 261.360,142.246 261.206,141.920 260.880 C 141.656 260.616,141.026 260.400,140.520 260.400 C 140.014 260.400,139.600 260.220,139.600 260.000 C 139.600 259.780,139.347 259.600,139.038 259.600 C 136.617 259.600,130.128 253.696,128.254 249.789 C 127.624 248.475,126.949 247.087,126.754 246.705 C 126.559 246.323,126.400 245.659,126.400 245.229 C 126.400 244.799,126.220 244.336,126.000 244.200 C 124.988 243.574,125.634 233.910,126.849 231.505 C 127.042 231.123,127.200 230.459,127.200 230.029 C 127.200 229.599,127.380 229.136,127.600 229.000 C 127.820 228.864,128.000 228.401,128.000 227.971 C 128.000 227.541,128.175 226.877,128.389 226.495 C 128.603 226.113,130.133 221.705,131.789 216.699 L 134.800 207.599 134.800 193.380 C 134.800 177.068,134.717 177.503,138.232 175.324 C 139.343 174.635,156.486 174.614,157.683 175.300 M139.064 230.898 C 137.354 235.867,137.113 237.140,137.300 240.235 C 138.021 252.168,156.422 253.002,158.590 241.200 C 159.011 238.906,158.638 234.994,157.958 234.574 C 157.761 234.452,157.600 233.943,157.600 233.443 C 157.600 232.943,157.467 232.400,157.304 232.237 C 157.141 232.074,156.716 231.009,156.360 229.871 L 155.712 227.800 147.956 227.698 L 140.200 227.595 139.064 230.898 " stroke="none" fill="#fcb41c" fill-rule="evenodd"></path><path id="path3" d="M236.000 58.600 L 236.000 117.200 292.100 117.101 L 348.200 117.003 292.500 116.900 L 236.800 116.797 236.800 59.199 C 236.800 27.519,236.851 1.600,236.913 1.600 C 236.975 1.600,239.941 4.465,243.503 7.966 C 248.979 13.348,251.699 15.600,252.723 15.600 C 252.833 15.600,252.507 15.240,252.000 14.800 C 251.493 14.360,250.925 14.000,250.739 14.000 C 250.552 14.000,250.400 13.827,250.400 13.616 C 250.400 13.405,249.477 12.370,248.350 11.316 C 245.510 8.662,241.791 4.930,239.318 2.254 C 235.658 -1.707,236.000 -7.514,236.000 58.600 M252.400 16.400 C 252.400 16.620,252.670 16.800,253.000 16.800 C 253.330 16.800,253.600 17.010,253.600 17.267 C 253.600 17.523,253.716 17.618,253.857 17.476 C 254.155 17.179,253.272 16.000,252.751 16.000 C 252.558 16.000,252.400 16.180,252.400 16.400 M254.832 18.511 C 255.094 19.086,255.558 19.652,255.863 19.769 C 256.567 20.039,255.960 18.797,255.000 18.000 C 254.420 17.518,254.403 17.569,254.832 18.511 M115.300 28.265 C 115.025 28.376,114.800 28.654,114.800 28.882 C 114.800 29.150,114.996 29.136,115.350 28.842 C 115.749 28.510,121.318 28.415,135.712 28.493 C 146.608 28.552,155.440 28.465,155.338 28.300 C 155.135 27.972,116.111 27.938,115.300 28.265 M155.946 48.507 C 156.116 48.676,160.832 48.766,166.427 48.707 L 176.600 48.599 166.119 48.399 C 160.355 48.290,155.777 48.338,155.946 48.507 M118.937 49.294 C 119.191 49.456,124.170 49.555,130.000 49.514 C 141.376 49.436,140.075 49.272,126.737 49.104 C 122.192 49.047,118.682 49.132,118.937 49.294 M180.962 60.200 C 180.962 63.720,181.024 65.106,181.098 63.281 C 181.172 61.456,181.172 58.576,181.097 56.881 C 181.022 55.186,180.961 56.680,180.962 60.200 M178.678 70.213 C 178.060 70.756,177.714 71.200,177.908 71.200 C 178.102 71.200,178.683 70.750,179.200 70.200 C 180.395 68.928,180.131 68.934,178.678 70.213 M118.661 71.100 C 118.559 71.265,121.653 71.354,125.538 71.298 C 138.580 71.108,139.874 70.967,129.324 70.883 C 123.562 70.837,118.763 70.935,118.661 71.100 M165.800 71.600 L 155.400 71.820 165.600 71.904 C 171.659 71.954,176.044 71.830,176.400 71.600 C 176.730 71.387,176.820 71.250,176.600 71.296 C 176.380 71.342,171.520 71.479,165.800 71.600 M116.370 72.700 L 115.400 73.800 116.600 72.800 C 117.260 72.250,117.875 71.755,117.967 71.700 C 118.058 71.645,117.955 71.600,117.736 71.600 C 117.518 71.600,116.903 72.095,116.370 72.700 M155.599 93.300 C 155.600 93.465,160.235 93.563,165.900 93.517 C 176.174 93.434,174.989 93.298,162.299 93.103 C 158.614 93.046,155.599 93.135,155.599 93.300 M180.963 104.800 C 180.963 108.430,181.023 109.915,181.098 108.100 C 181.172 106.285,181.172 103.315,181.098 101.500 C 181.023 99.685,180.963 101.170,180.963 104.800 M177.600 115.433 C 177.042 115.743,176.865 115.985,177.200 115.981 C 177.530 115.978,178.149 115.710,178.576 115.387 C 179.539 114.659,178.945 114.687,177.600 115.433 M124.876 115.499 C 127.668 115.567,132.348 115.568,135.276 115.499 C 138.204 115.431,135.920 115.375,130.200 115.374 C 124.480 115.374,122.084 115.430,124.876 115.499 M155.599 116.300 C 155.599 116.465,158.614 116.554,162.299 116.497 C 174.989 116.302,176.174 116.166,165.900 116.083 C 160.235 116.037,155.600 116.135,155.599 116.300 M115.814 117.835 C 115.441 118.404,115.205 118.938,115.289 119.022 C 115.373 119.107,115.758 118.641,116.144 117.988 C 117.006 116.528,116.748 116.409,115.814 117.835 M155.947 137.707 C 156.116 137.876,160.742 137.966,166.227 137.907 L 176.200 137.799 165.919 137.599 C 160.265 137.490,155.777 137.538,155.947 137.707 M180.963 149.200 C 180.963 152.830,181.023 154.315,181.098 152.500 C 181.172 150.685,181.172 147.715,181.098 145.900 C 181.023 144.085,180.963 145.570,180.963 149.200 M152.900 160.700 C 157.245 160.764,164.355 160.764,168.700 160.700 C 173.045 160.635,169.490 160.582,160.800 160.582 C 152.110 160.582,148.555 160.635,152.900 160.700 M134.981 193.400 C 134.981 201.540,135.034 204.813,135.100 200.674 C 135.165 196.534,135.165 189.874,135.099 185.874 C 135.034 181.873,134.981 185.260,134.981 193.400 M160.800 193.520 L 160.999 208.200 161.105 193.825 C 161.163 185.919,161.073 179.313,160.905 179.145 C 160.737 178.977,160.690 185.445,160.800 193.520 M169.668 234.200 C 169.662 234.640,169.811 235.360,170.000 235.800 C 170.438 236.819,170.438 235.768,170.000 234.400 C 169.743 233.596,169.677 233.557,169.668 234.200 M137.049 236.215 C 136.912 236.573,136.829 237.976,136.865 239.333 L 136.929 241.800 137.184 238.800 C 137.457 235.578,137.438 235.204,137.049 236.215 M158.434 236.600 C 158.422 237.040,158.587 237.670,158.800 238.000 C 159.314 238.795,159.314 237.796,158.800 236.600 L 158.456 235.800 158.434 236.600 M158.673 240.153 C 158.523 240.545,158.411 241.166,158.425 241.533 C 158.442 241.975,158.581 241.874,158.837 241.234 C 159.049 240.703,159.161 240.082,159.085 239.854 C 159.009 239.627,158.824 239.761,158.673 240.153 M144.896 249.668 C 145.173 249.844,146.570 249.970,148.000 249.947 C 150.986 249.901,150.525 249.713,146.896 249.497 C 145.520 249.415,144.620 249.492,144.896 249.668 M131.800 254.800 C 132.659 255.680,133.452 256.400,133.562 256.400 C 133.672 256.400,133.059 255.680,132.200 254.800 C 131.341 253.920,130.548 253.200,130.438 253.200 C 130.328 253.200,130.941 253.920,131.800 254.800 M146.707 261.490 C 147.426 261.579,148.506 261.577,149.107 261.486 C 149.708 261.395,149.120 261.322,147.800 261.324 C 146.480 261.326,145.988 261.401,146.707 261.490 " stroke="none" fill="#fcc453" fill-rule="evenodd"></path><path id="path4" d="M129.000 28.792 L 115.400 29.000 115.282 36.200 C 115.136 45.174,115.879 48.400,118.094 48.400 C 118.327 48.400,118.039 47.957,117.454 47.415 C 115.781 45.864,115.600 44.828,115.600 36.774 L 115.600 29.200 135.200 29.200 L 154.800 29.200 154.800 38.986 C 154.800 50.899,153.361 49.600,166.555 49.600 C 177.792 49.600,178.223 49.678,179.534 51.938 C 180.045 52.819,180.385 53.127,180.391 52.713 C 180.396 52.336,179.764 51.391,178.987 50.613 L 177.573 49.200 166.867 49.200 C 159.073 49.200,156.029 49.069,155.680 48.720 C 155.333 48.373,155.200 45.556,155.200 38.563 C 155.200 27.180,156.017 28.366,148.267 28.492 C 145.150 28.543,136.480 28.678,129.000 28.792 M273.600 38.213 C 273.600 38.622,276.455 41.278,276.667 41.067 C 276.784 40.949,276.238 40.211,275.453 39.427 C 274.092 38.066,273.600 37.743,273.600 38.213 M119.400 48.797 C 119.840 48.988,124.745 49.156,130.300 49.172 L 140.400 49.200 140.400 60.200 L 140.400 71.200 130.126 71.200 C 115.036 71.200,115.400 70.919,115.400 82.562 C 115.400 91.821,116.309 93.721,120.660 93.557 C 121.547 93.524,121.400 93.427,120.000 93.119 C 116.181 92.281,115.600 90.865,115.600 82.400 C 115.600 71.564,115.198 71.870,129.800 71.600 L 140.600 71.400 140.600 60.000 L 140.600 48.600 129.600 48.525 C 123.104 48.480,118.928 48.591,119.400 48.797 M285.600 50.556 C 285.600 50.734,286.159 51.401,286.842 52.040 C 287.526 52.678,287.973 53.200,287.837 53.200 C 287.700 53.200,289.135 54.746,291.025 56.636 C 294.559 60.170,296.139 61.149,293.101 57.923 C 292.166 56.929,290.945 55.595,290.388 54.958 C 288.800 53.140,285.600 50.199,285.600 50.556 M180.562 60.200 C 180.562 63.720,180.624 65.106,180.698 63.281 C 180.772 61.456,180.772 58.576,180.697 56.881 C 180.622 55.186,180.561 56.680,180.562 60.200 M295.104 60.231 C 294.857 60.631,296.253 62.188,306.371 72.800 C 309.832 76.430,314.179 81.003,316.032 82.963 C 317.884 84.923,320.390 87.548,321.600 88.797 C 325.132 92.443,336.987 104.871,338.391 106.400 C 341.802 110.115,348.927 117.200,349.252 117.200 C 349.453 117.200,348.668 116.226,347.509 115.037 C 346.349 113.847,343.240 110.589,340.600 107.798 C 337.960 105.007,334.090 100.949,332.000 98.779 C 329.910 96.610,326.580 93.106,324.600 90.993 C 322.620 88.881,318.930 85.015,316.400 82.403 C 313.870 79.791,311.080 76.828,310.200 75.819 C 309.320 74.810,306.215 71.556,303.300 68.588 C 300.385 65.619,298.000 63.002,298.000 62.772 C 298.000 62.541,297.865 62.435,297.700 62.534 C 297.408 62.711,296.375 61.822,296.392 61.408 C 296.396 61.294,296.272 61.213,296.116 61.230 C 295.959 61.246,295.720 60.943,295.585 60.556 C 295.449 60.169,295.233 60.023,295.104 60.231 M179.815 67.952 C 179.673 68.399,179.013 69.223,178.348 69.782 L 177.139 70.800 166.469 70.806 C 160.601 70.809,155.572 70.957,155.294 71.134 C 154.900 71.383,154.811 73.956,154.894 82.628 L 155.000 93.800 165.924 93.906 C 177.938 94.024,178.115 94.058,179.655 96.583 C 180.063 97.252,180.398 97.547,180.399 97.238 C 180.399 96.929,179.675 95.987,178.790 95.144 L 177.180 93.613 166.290 93.506 L 155.400 93.400 155.287 83.200 C 155.226 77.590,155.274 72.595,155.395 72.100 L 155.615 71.200 166.227 71.200 C 177.941 71.200,178.622 71.077,179.823 68.756 C 180.173 68.079,180.372 67.439,180.266 67.333 C 180.160 67.227,179.957 67.505,179.815 67.952 M140.493 104.476 L 140.400 115.552 129.900 115.676 C 114.946 115.853,115.400 115.500,115.400 126.929 C 115.400 138.391,114.905 137.997,129.326 138.006 C 134.867 138.009,139.621 138.153,139.892 138.325 C 140.248 138.551,140.416 140.938,140.504 147.018 L 140.625 155.400 140.613 146.600 L 140.600 137.800 129.600 137.600 C 114.979 137.334,115.600 137.804,115.600 127.000 C 115.600 116.094,115.196 116.402,129.480 116.394 C 135.156 116.391,140.028 116.243,140.306 116.066 C 140.700 115.817,140.788 113.250,140.700 104.572 L 140.587 93.400 140.493 104.476 M180.562 104.600 C 180.562 108.120,180.624 109.506,180.698 107.681 C 180.772 105.856,180.772 102.976,180.697 101.281 C 180.622 99.586,180.561 101.080,180.562 104.600 M179.513 113.031 C 179.255 113.597,178.404 114.399,177.622 114.813 C 176.780 115.258,176.480 115.572,176.887 115.582 C 177.604 115.601,180.400 113.058,180.400 112.387 C 180.400 111.686,179.991 111.983,179.513 113.031 M154.981 116.106 C 154.874 116.384,154.835 121.469,154.893 127.406 L 155.000 138.200 165.600 138.214 L 176.200 138.227 165.800 138.014 L 155.400 137.800 155.400 127.000 L 155.400 116.200 165.600 115.990 L 175.800 115.779 165.487 115.690 C 157.475 115.620,155.132 115.713,154.981 116.106 M177.365 138.924 C 177.786 139.186,178.416 139.686,178.765 140.035 C 179.114 140.384,179.614 141.014,179.876 141.435 C 180.139 141.856,180.364 141.981,180.376 141.713 C 180.389 141.446,179.764 140.591,178.987 139.813 C 178.209 139.036,177.354 138.411,177.087 138.424 C 176.819 138.436,176.944 138.661,177.365 138.924 M180.561 149.200 C 180.561 152.610,180.622 154.005,180.697 152.300 C 180.772 150.595,180.772 147.805,180.697 146.100 C 180.622 144.395,180.561 145.790,180.561 149.200 M140.800 156.722 C 140.800 157.333,142.401 159.175,143.331 159.635 C 143.812 159.873,143.620 159.591,142.900 159.003 C 142.185 158.420,141.600 157.696,141.600 157.395 C 141.600 157.094,141.420 156.736,141.200 156.600 C 140.980 156.464,140.800 156.519,140.800 156.722 M179.642 157.288 C 179.433 157.838,178.753 158.693,178.131 159.188 C 177.234 159.902,177.204 159.967,177.987 159.504 C 179.182 158.797,180.647 156.914,180.284 156.551 C 180.140 156.407,179.851 156.739,179.642 157.288 M152.527 160.300 C 157.107 160.364,164.487 160.364,168.927 160.299 C 173.367 160.235,169.620 160.183,160.600 160.183 C 151.580 160.183,147.947 160.235,152.527 160.300 M138.800 175.482 C 137.988 175.779,136.431 177.220,135.863 178.200 C 135.546 178.748,135.332 183.728,135.184 194.000 C 135.065 202.250,134.838 209.450,134.679 210.000 C 134.454 210.781,134.519 210.738,134.978 209.800 C 135.458 208.816,135.567 206.022,135.582 194.287 C 135.607 174.329,134.619 175.800,148.004 175.800 C 153.240 175.800,157.316 175.668,157.062 175.506 C 156.534 175.170,139.713 175.149,138.800 175.482 M158.931 177.238 L 160.000 178.676 160.006 193.038 C 160.010 201.620,160.168 207.641,160.400 208.000 C 160.930 208.821,160.929 181.080,160.398 179.170 C 160.180 178.384,159.520 177.304,158.931 176.770 L 157.862 175.800 158.931 177.238 M160.828 209.476 C 160.813 209.958,160.980 210.464,161.200 210.600 C 161.673 210.892,161.673 210.501,161.200 209.400 C 160.869 208.629,160.855 208.631,160.828 209.476 M133.999 211.233 C 133.999 211.325,132.566 215.622,130.815 220.782 C 129.064 225.943,127.710 230.243,127.806 230.340 C 127.902 230.436,128.067 230.264,128.173 229.957 C 128.278 229.651,129.207 226.880,130.237 223.800 C 131.266 220.720,132.625 216.685,133.255 214.834 C 133.886 212.983,134.311 211.378,134.201 211.267 C 134.090 211.157,134.000 211.142,133.999 211.233 M163.212 216.400 C 163.212 216.730,163.387 217.270,163.600 217.600 C 163.945 218.133,163.988 218.133,163.988 217.600 C 163.988 217.270,163.813 216.730,163.600 216.400 C 163.255 215.867,163.212 215.867,163.212 216.400 M164.012 218.800 C 164.012 219.130,164.187 219.670,164.400 220.000 C 164.745 220.533,164.788 220.533,164.788 220.000 C 164.788 219.670,164.613 219.130,164.400 218.800 C 164.055 218.267,164.012 218.267,164.012 218.800 M164.812 221.200 C 164.812 221.530,164.987 222.070,165.200 222.400 C 165.545 222.933,165.588 222.933,165.588 222.400 C 165.588 222.070,165.413 221.530,165.200 221.200 C 164.855 220.667,164.812 220.667,164.812 221.200 M165.861 224.000 C 166.317 225.802,167.252 228.003,166.984 226.644 C 166.859 226.008,166.498 224.928,166.182 224.244 C 165.751 223.308,165.671 223.248,165.861 224.000 M139.447 227.524 C 138.347 229.304,136.276 236.946,136.283 239.200 C 136.299 244.018,139.529 248.678,143.600 249.755 C 144.150 249.901,143.809 249.623,142.841 249.138 C 136.782 246.099,135.343 240.504,138.357 231.700 C 139.754 227.619,140.021 226.595,139.447 227.524 M167.407 228.800 C 168.088 231.019,168.745 232.566,168.766 232.000 C 168.794 231.242,167.854 228.516,167.424 228.107 C 167.246 227.938,167.239 228.250,167.407 228.800 M126.920 232.200 C 126.173 234.750,125.861 237.112,126.364 236.400 C 126.597 236.070,126.791 235.293,126.794 234.674 C 126.797 234.054,126.991 233.190,127.225 232.753 C 127.459 232.316,127.591 231.653,127.519 231.279 C 127.445 230.895,127.184 231.295,126.920 232.200 M158.244 233.800 C 158.573 235.271,158.802 235.590,158.794 234.567 C 158.791 234.145,158.605 233.530,158.382 233.200 C 158.085 232.762,158.048 232.924,158.244 233.800 M169.117 234.200 C 169.488 236.298,169.479 241.726,169.101 244.000 C 168.849 245.512,168.880 245.672,169.292 245.000 C 169.950 243.928,169.963 234.504,169.309 233.400 C 168.912 232.731,168.881 232.861,169.117 234.200 M159.000 239.000 C 159.000 240.828,159.135 242.240,159.300 242.138 C 159.465 242.036,159.600 240.624,159.600 239.000 C 159.600 237.376,159.465 235.964,159.300 235.862 C 159.135 235.760,159.000 237.172,159.000 239.000 M126.068 242.000 C 126.087 243.650,126.717 245.356,126.732 243.800 C 126.738 243.140,126.589 242.240,126.400 241.800 C 126.087 241.073,126.057 241.091,126.068 242.000 M127.077 246.200 C 127.619 248.742,130.270 252.779,133.182 255.497 C 134.939 257.137,140.264 260.269,140.646 259.887 C 140.749 259.784,139.685 259.146,138.281 258.469 C 134.202 256.502,129.954 252.117,128.137 248.000 C 127.894 247.450,127.499 246.550,127.259 246.000 C 126.841 245.045,126.833 245.054,127.077 246.200 M155.970 247.054 C 155.436 247.634,154.100 248.524,153.000 249.031 C 151.900 249.539,151.232 249.964,151.516 249.977 C 152.412 250.017,154.954 248.522,156.175 247.237 C 156.821 246.556,157.257 246.000,157.145 246.000 C 157.032 246.000,156.503 246.474,155.970 247.054 M167.271 248.808 C 165.990 251.435,162.285 255.832,160.603 256.719 C 160.165 256.951,159.927 257.260,160.074 257.407 C 160.992 258.325,169.257 247.844,168.730 246.430 C 168.658 246.239,168.002 247.309,167.271 248.808 M146.500 250.291 C 147.325 250.378,148.675 250.378,149.500 250.291 C 150.325 250.205,149.650 250.134,148.000 250.134 C 146.350 250.134,145.675 250.205,146.500 250.291 M156.800 258.861 C 155.590 259.504,155.050 259.910,155.600 259.764 C 156.797 259.445,159.600 258.063,159.600 257.792 C 159.600 257.456,159.053 257.664,156.800 258.861 M142.000 260.400 C 142.550 260.576,143.360 260.726,143.800 260.732 L 144.600 260.744 143.800 260.400 C 143.360 260.211,142.550 260.062,142.000 260.068 L 141.000 260.080 142.000 260.400 M152.200 260.400 L 151.400 260.744 152.200 260.744 C 152.640 260.744,153.360 260.589,153.800 260.400 L 154.600 260.056 153.800 260.056 C 153.360 260.056,152.640 260.211,152.200 260.400 M146.500 261.091 C 147.325 261.178,148.675 261.178,149.500 261.091 C 150.325 261.005,149.650 260.934,148.000 260.934 C 146.350 260.934,145.675 261.005,146.500 261.091 " stroke="none" fill="#fce3aa" fill-rule="evenodd"></path></g></svg>